[Header]
FileType HTR
DataType HTRS
FileVersion 1
NumSegments 64
NumFrames 4
DataFrameRate 30
EulerRotationOrder ZYX
CalibrationUnits mm
RotationUnits Degrees
GlobalAxisofGravity Y
BoneLengthAxis Y
ScaleFactor 1.0
[SegmentNames&Hierarchy]
Hips	GLOBAL
Spine	Hips
Spine1	Spine
Spine2	Spine1
Neck	Spine2
Head	Neck
LeftEye	Head
RightEye	Head
LeftShoulder	Spine2
LeftArm	LeftShoulder
LeftForeArm	LeftArm
LeftHand	LeftForeArm
LeftHandThumb1	LeftHand
LeftHandThumb2	LeftHandThumb1
LeftHandThumb3	LeftHandThumb2
LeftHandThumb4	LeftHandThumb3
LeftHandIndex1	LeftHand
LeftHandIndex2	LeftHandIndex1
LeftHandIndex3	LeftHandIndex2
LeftHandIndex4	LeftHandIndex3
LeftHandMiddle1	LeftHand
LeftHandMiddle2	LeftHandMiddle1
LeftHandMiddle3	LeftHandMiddle2
LeftHandMiddle4	LeftHandMiddle3
LeftHandRing1	LeftHand
LeftHandRing2	LeftHandRing1
LeftHandRing3	LeftHandRing2
LeftHandRing4	LeftHandRing3
LeftHandPinky1	LeftHand
LeftHandPinky2	LeftHandPinky1
LeftHandPinky3	LeftHandPinky2
LeftHandPinky4	LeftHandPinky3
RightShoulder	Spine2
RightArm	RightShoulder
RightForeArm	RightArm
RightHand	RightForeArm
RightHandPinky1	RightHand
RightHandPinky2	RightHandPinky1
RightHandPinky3	RightHandPinky2
RightHandPinky4	RightHandPinky3
RightHandRing1	RightHand
RightHandRing2	RightHandRing1
RightHandRing3	RightHandRing2
RightHandRing4	RightHandRing3
RightHandMiddle1	RightHand
RightHandMiddle2	RightHandMiddle1
RightHandMiddle3	RightHandMiddle2
RightHandMiddle4	RightHandMiddle3
RightHandIndex1	RightHand
RightHandIndex2	RightHandIndex1
RightHandIndex3	RightHandIndex2
RightHandIndex4	RightHandIndex3
RightHandThumb1	RightHand
RightHandThumb2	RightHandThumb1
RightHandThumb3	RightHandThumb2
RightHandThumb4	RightHandThumb3
LeftUpLeg	Hips
LeftLeg	LeftUpLeg
LeftFoot	LeftLeg
LeftToeBase	LeftFoot
RightUpLeg	Hips
RightLeg	RightUpLeg
RightFoot	RightLeg
RightToeBase	RightFoot
[BasePosition]
Hips	0	0	0	0	0	0	1
Spine	0	0	0	0	0	0	1
Spine1	0	0	0	0	0	0	1
Spine2	0	0	0	0	0	0	1
Neck	0	0	0	0	0	0	1
Head	0	0	0	0	0	0	1
LeftEye	0	0	0	0	0	0	1
RightEye	0	0	0	0	0	0	1
LeftShoulder	0	0	0	0	0	0	1
LeftArm	0	0	0	0	0	0	1
LeftForeArm	0	0	0	0	0	0	1
LeftHand	0	0	0	0	0	0	1
LeftHandThumb1	0	0	0	0	0	0	1
LeftHandThumb2	0	0	0	0	0	0	1
LeftHandThumb3	0	0	0	0	0	0	1
LeftHandThumb4	0	0	0	0	0	0	1
LeftHandIndex1	0	0	0	0	0	0	1
LeftHandIndex2	0	0	0	0	0	0	1
LeftHandIndex3	0	0	0	0	0	0	1
LeftHandIndex4	0	0	0	0	0	0	1
LeftHandMiddle1	0	0	0	0	0	0	1
LeftHandMiddle2	0	0	0	0	0	0	1
LeftHandMiddle3	0	0	0	0	0	0	1
LeftHandMiddle4	0	0	0	0	0	0	1
LeftHandRing1	0	0	0	0	0	0	1
LeftHandRing2	0	0	0	0	0	0	1
LeftHandRing3	0	0	0	0	0	0	1
LeftHandRing4	0	0	0	0	0	0	1
LeftHandPinky1	0	0	0	0	0	0	1
LeftHandPinky2	0	0	0	0	0	0	1
LeftHandPinky3	0	0	0	0	0	0	1
LeftHandPinky4	0	0	0	0	0	0	1
RightShoulder	0	0	0	0	0	0	1
RightArm	0	0	0	0	0	0	1
RightForeArm	0	0	0	0	0	0	1
RightHand	0	0	0	0	0	0	1
RightHandPinky1	0	0	0	0	0	0	1
RightHandPinky2	0	0	0	0	0	0	1
RightHandPinky3	0	0	0	0	0	0	1
RightHandPinky4	0	0	0	0	0	0	1
RightHandRing1	0	0	0	0	0	0	1
RightHandRing2	0	0	0	0	0	0	1
RightHandRing3	0	0	0	0	0	0	1
RightHandRing4	0	0	0	0	0	0	1
RightHandMiddle1	0	0	0	0	0	0	1
RightHandMiddle2	0	0	0	0	0	0	1
RightHandMiddle3	0	0	0	0	0	0	1
RightHandMiddle4	0	0	0	0	0	0	1
RightHandIndex1	0	0	0	0	0	0	1
RightHandIndex2	0	0	0	0	0	0	1
RightHandIndex3	0	0	0	0	0	0	1
RightHandIndex4	0	0	0	0	0	0	1
RightHandThumb1	0	0	0	0	0	0	1
RightHandThumb2	0	0	0	0	0	0	1
RightHandThumb3	0	0	0	0	0	0	1
RightHandThumb4	0	0	0	0	0	0	1
LeftUpLeg	0	0	0	0	0	0	1
LeftLeg	0	0	0	0	0	0	1
LeftFoot	0	0	0	0	0	0	1
LeftToeBase	0	0	0	0	0	0	1
RightUpLeg	0	0	0	0	0	0	1
RightLeg	0	0	0	0	0	0	1
RightFoot	0	0	0	0	0	0	1
RightToeBase	0	0	0	0	0	0	1
[Hips]
180	-43.52656555	975.8621826	214.092804	5.827439308	-62.24309921	-374.1753845	1.0
181	-69.97880554	994.9729004	194.1381226	5.478536129	-51.91496658	-373.9013062	1.0
182	-96.73574829	1008.528809	175.4744568	5.118996143	-42.30162048	-373.0687561	1.0
183	-125.5424423	1013.627258	158.5226746	5.180168152	-33.76470947	-372.8607178	1.0
[Spine]
180	0	101.8159943	1.315000057	14.12612534	4.953183174	14.00049973	1.0
181	0	101.8159943	1.315000057	12.92892933	6.329856873	13.86558914	1.0
182	0	101.8159943	1.315000057	10.90385437	7.744446278	12.87642193	1.0
183	0	101.8159943	1.315000057	9.091694832	8.862745285	12.45284367	1.0
[Spine1]
180	0	100.8349991	-10.00800037	-1.843096972	1.101798415	-10.31494617	1.0
181	0	100.8349991	-10.00800037	-1.564269781	1.261505127	-10.21382046	1.0
182	0	100.8349991	-10.00800037	-0.4933989346	1.459141016	-9.351231575	1.0
183	0	100.8349991	-10.00800037	0.5215545893	1.612641811	-8.35641098	1.0
[Spine2]
180	0	91	-13.73399925	-1.634725094	0.9427034855	-10.36133003	1.0
181	0	91	-13.73399925	-1.338099599	1.125605345	-10.25754166	1.0
182	0	91	-13.73399925	-0.2729032636	1.346671343	-9.373771667	1.0
183	0	91	-13.73399925	0.7301530242	1.518258929	-8.355877876	1.0
[Neck]
180	0	166.7169952	-25.16200066	4.836425304	4.406783104	5.551986217	1.0
181	0	166.7169952	-25.16200066	5.250668526	3.838513136	6.270255566	1.0
182	0	166.7169952	-25.16200066	5.214940548	3.506289482	6.088797092	1.0
183	0	166.7169952	-25.16200066	5.023361683	3.391787767	5.616594791	1.0
[Head]
180	0	96.17900085	16.84999847	4.050981522	29.09164429	6.630894184	1.0
181	0	96.17900085	16.84999847	3.720152378	27.19297028	7.587594986	1.0
182	0	96.17900085	16.84999847	2.364342451	25.29481697	6.898387909	1.0
183	0	96.17900085	16.84999847	0.9952940345	24.14351463	5.695078373	1.0
[LeftEye]
180	30.6760006	64.09500122	92.83599854	0	0	0	1.0
181	30.6760006	64.09500122	92.83599854	0	0	0	1.0
182	30.6760006	64.09500122	92.83599854	0	0	0	1.0
183	30.6760006	64.09500122	92.83599854	0	0	0	1.0
[RightEye]
180	-30.6760006	64.09500122	92.83499908	0	0	0	1.0
181	-30.6760006	64.09500122	92.83499908	0	0	0	1.0
182	-30.6760006	64.09500122	92.83499908	0	0	0	1.0
183	-30.6760006	64.09500122	92.83499908	0	0	0	1.0
[LeftShoulder]
180	45.70400238	109.4599991	-26.28000069	-1.360852003	9.149237633	-17.22209549	1.0
181	45.70400238	109.4599991	-26.28000069	-1.075933456	8.899393082	-12.77569771	1.0
182	45.70400238	109.4599991	-26.28000069	-0.6193627119	7.008752823	-10.1484623	1.0
183	45.70400238	109.4599991	-26.28000069	-0.390922457	6.046583176	-7.823479652	1.0
[LeftArm]
180	105.923996	-5.24600029	-22.32099915	36.13797379	46.20421982	-31.82973671	1.0
181	105.923996	-5.24600029	-22.32099915	26.5555191	54.45813751	-32.47545624	1.0
182	105.923996	-5.24600029	-22.32099915	19.06285286	59.04567719	-31.25366974	1.0
183	105.923996	-5.24600029	-22.32099915	16.38475609	60.34933472	-27.11726379	1.0
[LeftForeArm]
180	278.414978	-0.0009999999311	0	-1.432282261e-05	-41.92935562	-0.0002045532747	1.0
181	278.414978	-0.0009999999311	0	9.695819244e-06	-42.7612381	-0.0002076483506	1.0
182	278.414978	-0.0009999999311	0	1.055530811e-05	-42.97956467	-0.0002133381204	1.0
183	278.414978	-0.0009999999311	0	2.46282998e-05	-43.4210434	-0.0002320632047	1.0
[LeftHand]
180	283.2879944	0	0	-3.885588408	34.43523026	3.438402176	1.0
181	283.2879944	0	0	-4.318831444	37.77833939	2.40060997	1.0
182	283.2879944	0	0	-6.357049942	39.62247849	1.622124076	1.0
183	283.2879944	0	0	-9.09352684	39.91770554	0.4502178431	1.0
[LeftHandThumb1]
180	24.6609993	-15.75	26.8239994	-0.5746884942	7.994217396	9.32470417	1.0
181	24.6609993	-15.75	26.8239994	-0.3409461975	6.860862732	7.866882801	1.0
182	24.6609993	-15.75	26.8239994	-0.2305603921	5.885458946	6.647112846	1.0
183	24.6609993	-15.75	26.8239994	-0.2106548995	5.151394367	5.751729012	1.0
[LeftHandThumb2]
180	32.29800034	-18.64699936	18.64699936	1.273672104	-0.218196407	-1.021589518	1.0
181	32.29800034	-18.64699936	18.64699936	1.204349995	-0.1621127278	-1.059455276	1.0
182	32.29800034	-18.64699936	18.64699936	1.172125101	-0.135871321	-1.076795816	1.0
183	32.29800034	-18.64699936	18.64699936	1.166229963	-0.1350580603	-1.079786897	1.0
[LeftHandThumb3]
180	26.52600098	-15.31499958	15.31499958	-3.865423679	-3.606656075	3.557569981	1.0
181	26.52600098	-15.31499958	15.31499958	-4.197296619	-4.104345322	3.680011749	1.0
182	26.52600098	-15.31499958	15.31499958	-4.324933052	-4.291185856	3.727367163	1.0
183	26.52600098	-15.31499958	15.31499958	-4.303790092	-4.252604008	3.718351603	1.0
[LeftHandThumb4]
180	19.54599953	-11.28499985	11.28499985	0	0	0	1.0
181	19.54599953	-11.28499985	11.28499985	0	0	0	1.0
182	19.54599953	-11.28499985	11.28499985	0	0	0	1.0
183	19.54599953	-11.28499985	11.28499985	0	0	0	1.0
[LeftHandIndex1]
180	91.09299469	-5.170999527	22.60099792	-0.2831802666	-5.871898651	16.9239254	1.0
181	91.09299469	-5.170999527	22.60099792	-0.1879447103	-5.170202255	13.87045956	1.0
182	91.09299469	-5.170999527	22.60099792	-0.1282946169	-4.495656967	11.50041008	1.0
183	91.09299469	-5.170999527	22.60099792	-0.09548722208	-3.883634567	9.930691719	1.0
[LeftHandIndex2]
180	36.76399994	0	0	-0.001298881136	0.1335935891	-1.111286402	1.0
181	36.76399994	0	0	-0.002181827556	0.1723681688	-1.43383491	1.0
182	36.76399994	0	0	-0.002412474016	0.1822268069	-1.515945315	1.0
183	36.76399994	0	0	-0.00204619905	0.1683228165	-1.400179505	1.0
[LeftHandIndex3]
180	28.83100128	0	0	-0.08913638443	1.104428649	-9.227557182	1.0
181	28.83100128	0	0	-0.09818483889	1.158860683	-9.686705589	1.0
182	28.83100128	0	0	-0.1041382253	1.193151832	-9.976288795	1.0
183	28.83100128	0	0	-0.1064226925	1.206106782	-10.08578873	1.0
[LeftHandIndex4]
180	23.92700005	0	0	0	0	0	1.0
181	23.92700005	0	0	0	0	0	1.0
182	23.92700005	0	0	0	0	0	1.0
183	23.92700005	0	0	0	0	0	1.0
[LeftHandMiddle1]
180	95.33399963	0	0	0.005357539747	2.792718887	2.053627491	1.0
181	95.33399963	0	0	0.006573284511	3.648949623	-2.488841057	1.0
182	95.33399963	0	0	-0.02318252809	4.422375679	-6.030763149	1.0
183	95.33399963	0	0	-0.05465449765	5.041778088	-8.352734566	1.0
[LeftHandMiddle2]
180	36.98199844	0	0	-5.923021945e-06	-6.966332876e-05	1.803354826e-05	1.0
181	36.98199844	0	0	-1.224680545e-05	-6.578640023e-05	-2.570821925e-05	1.0
182	36.98199844	0	0	-1.514576343e-05	-6.757467054e-05	-7.526353329e-06	1.0
183	36.98199844	0	0	-6.682677167e-07	-7.040027413e-05	-7.207664112e-06	1.0
[LeftHandMiddle3]
180	29.50900078	0	0	-0.06571754813	0.9486499429	-7.916694164	1.0
181	29.50900078	0	0	-0.07931860536	1.042265654	-8.703813553	1.0
182	29.50900078	0	0	-0.08915548772	1.104499817	-9.228146553	1.0
183	29.50900078	0	0	-0.09402495623	1.134355426	-9.479774475	1.0
[LeftHandMiddle4]
180	28.3390007	0	0	0	0	0	1.0
181	28.3390007	0	0	0	0	0	1.0
182	28.3390007	0	0	0	0	0	1.0
183	28.3390007	0	0	0	0	0	1.0
[LeftHandRing1]
180	91.04499817	-0.4390000105	-18.65100098	0.04614626616	11.77030563	-8.281802177	1.0
181	91.04499817	-0.4390000105	-18.65100098	-0.1229995638	12.94265747	-15.45066166	1.0
182	91.04499817	-0.4390000105	-18.65100098	-0.3314124644	13.95905495	-21.06548309	1.0
183	91.04499817	-0.4390000105	-18.65100098	-0.496776402	14.69887161	-24.73677444	1.0
[LeftHandRing2]
180	31.54000092	0	0	-0.0003446627816	0.02810489386	-0.2337803543	1.0
181	31.54000092	0	0	-0.002921823645	0.2009442449	-1.671600699	1.0
182	31.54000092	0	0	-0.0080905715	0.3316931129	-2.760072947	1.0
183	31.54000092	0	0	-0.01060138643	0.3850569427	-3.204487324	1.0
[LeftHandRing3]
180	29.37700081	0	0	-0.07079731673	0.9849082232	-8.22136116	1.0
181	29.37700081	0	0	-0.07833596319	1.035857797	-8.649875641	1.0
182	29.37700081	0	0	-0.08388660848	1.07167697	-8.951401711	1.0
183	29.37700081	0	0	-0.08686605096	1.090485454	-9.109897614	1.0
[LeftHandRing4]
180	26.47500038	0	0	0	0	0	1.0
181	26.47500038	0	0	0	0	0	1.0
182	26.47500038	0	0	0	0	0	1.0
183	26.47500038	0	0	0	0	0	1.0
[LeftHandPinky1]
180	80.77799988	-4.887000084	-38.06099701	0.4240809679	26.83867836	-15.54100704	1.0
181	80.77799988	-4.887000084	-38.06099701	-0.09803445637	28.54521942	-27.11443138	1.0
182	80.77799988	-4.887000084	-38.06099701	-0.7146522403	29.9479332	-36.26737595	1.0
183	80.77799988	-4.887000084	-38.06099701	-1.195687294	30.89656258	-42.27452087	1.0
[LeftHandPinky2]
180	36	0	0	0.2069400847	-3.714533567	-3.296868563	1.0
181	36	0	0	0.2251022607	-3.679571867	-3.579215527	1.0
182	36	0	0	0.2109245509	-3.70695591	-3.358260632	1.0
183	36	0	0	0.1733096093	-3.777896166	-2.782813311	1.0
[LeftHandPinky3]
180	21.14200211	0	0	-0.05952205136	0.9029211402	-7.532774448	1.0
181	21.14200211	0	0	-0.07457371056	1.010917664	-8.439996719	1.0
182	21.14200211	0	0	-0.09310264885	1.127999425	-9.426347733	1.0
183	21.14200211	0	0	-0.1047256216	1.196935058	-10.00813103	1.0
[LeftHandPinky4]
180	19.75699997	0	0	0	0	0	1.0
181	19.75699997	0	0	0	0	0	1.0
182	19.75699997	0	0	0	0	0	1.0
183	19.75699997	0	0	0	0	0	1.0
[RightShoulder]
180	-45.70000076	109.4620056	-26.28000069	0.1165471524	-5.200999737	-17.42465019	1.0
181	-45.70000076	109.4620056	-26.28000069	0.09015448391	-4.980618954	-16.62444305	1.0
182	-45.70000076	109.4620056	-26.28000069	0.05361250788	-4.282002926	-17.67484474	1.0
183	-45.70000076	109.4620056	-26.28000069	-0.01436726656	-3.299747705	-18.08455276	1.0
[RightArm]
180	-105.9280014	-5.248000145	-22.32099915	-39.98894119	-10.14708519	-14.18988419	1.0
181	-105.9280014	-5.248000145	-22.32099915	-36.07806015	-6.831336498	-17.5800705	1.0
182	-105.9280014	-5.248000145	-22.32099915	-33.21124649	-4.601599216	-16.91172028	1.0
183	-105.9280014	-5.248000145	-22.32099915	-31.00476456	-2.746679306	-15.71962452	1.0
[RightForeArm]
180	-278.414978	0	0	1.164216314e-06	46.22006607	7.449555142e-06	1.0
181	-278.414978	0	0	1.91250947e-05	45.19546127	2.808251338e-05	1.0
182	-278.414978	0	0	6.388071142e-06	43.8596077	3.2350938e-06	1.0
183	-278.414978	0	0	5.103411809e-07	41.9776001	-1.721509761e-07	1.0
[RightHand]
180	-283.2879944	0	0.0009999999311	5.364716053	10.60967731	-13.50878811	1.0
181	-283.2879944	0	0.0009999999311	9.631128311	10.7028017	-10.69059849	1.0
182	-283.2879944	0	0.0009999999311	12.92498016	10.4520359	-8.31492424	1.0
183	-283.2879944	0	0.0009999999311	15.31142616	10.06464767	-6.786919594	1.0
[RightHandPinky1]
180	-80.76699829	-4.885000229	-38.06000137	-1.295197129	-16.7695446	37.41201401	1.0
181	-80.76699829	-4.885000229	-38.06000137	-1.345737338	-16.8248291	38.07553864	1.0
182	-80.76699829	-4.885000229	-38.06000137	-1.333023667	-17.01490211	37.96657944	1.0
183	-80.76699829	-4.885000229	-38.06000137	-1.263322353	-17.29832077	37.15108109	1.0
[RightHandPinky2]
180	-36	0	0.0009999999311	-0.9626240134	-3.52769804	30.53207016	1.0
181	-36	0	0.0009999999311	-0.9340473413	-3.478769541	30.06376457	1.0
182	-36	0	0.0009999999311	-0.8719197512	-3.369490147	29.02504158	1.0
183	-36	0	0.0009999999311	-0.7881663442	-3.213697672	27.56372452	1.0
[RightHandPinky3]
180	-21.14200211	0	0	-0.002969969995	0.2032527179	-1.674522638	1.0
181	-21.14200211	0	0	-0.003201148938	0.2110831141	-1.739104748	1.0
182	-21.14200211	0	0	-0.003359970404	0.2162464261	-1.781631351	1.0
183	-21.14200211	0	0	-0.003529676236	0.2216019183	-1.825772405	1.0
[RightHandPinky4]
180	-19.75699997	0	0	0	0	0	1.0
181	-19.75699997	0	0	0	0	0	1.0
182	-19.75699997	0	0	0	0	0	1.0
183	-19.75699997	0	0	0	0	0	1.0
[RightHandRing1]
180	-91.03599548	-0.4390000105	-18.65100098	-0.3989225626	-8.410452843	20.36067963	1.0
181	-91.03599548	-0.4390000105	-18.65100098	-0.4321796298	-8.408099174	21.1049099	1.0
182	-91.03599548	-0.4390000105	-18.65100098	-0.4311884046	-8.392695427	21.08103371	1.0
183	-91.03599548	-0.4390000105	-18.65100098	-0.4013968408	-8.360761642	20.40212822	1.0
[RightHandRing2]
180	-31.54000092	0	0	-0.2009659708	-1.659399152	13.80643845	1.0
181	-31.54000092	0	0	-0.1624195725	-1.494134426	12.40752602	1.0
182	-31.54000092	0	0	-0.1414115131	-1.395260453	11.57431889	1.0
183	-31.54000092	0	0	-0.1294975728	-1.336047888	11.07653236	1.0
[RightHandRing3]
180	-29.37700081	0	0	1.804079056	-0.5572602749	4.597536087	1.0
181	-29.37700081	0	0	1.506084204	-0.360845089	2.974700689	1.0
182	-29.37700081	0	0	1.45822084	-0.2513728738	2.071042299	1.0
183	-29.37700081	0	0	1.607577324	-0.2031686902	1.673626065	1.0
[RightHandRing4]
180	-26.47500038	0	0	0	0	0	1.0
181	-26.47500038	0	0	0	0	0	1.0
182	-26.47500038	0	0	0	0	0	1.0
183	-26.47500038	0	0	0	0	0	1.0
[RightHandMiddle1]
180	-95.32500458	0	0	-0.09225862473	-1.848086238	9.388143539	1.0
181	-95.32500458	0	0	-0.1111654341	-1.766316414	10.26977253	1.0
182	-95.32500458	0	0	-0.1132191494	-1.544863343	10.36209011	1.0
183	-95.32500458	0	0	-0.1024381891	-1.217608571	9.849477768	1.0
[RightHandMiddle2]
180	-36.98199844	0	0	-0.367765069	-2.232386351	18.72858047	1.0
181	-36.98199844	0	0	-0.2728565037	-1.928605556	16.10414314	1.0
182	-36.98199844	0	0	-0.2454568297	-1.831902862	15.27530575	1.0
183	-36.98199844	0	0	-0.2553857863	-1.866946697	15.57571983	1.0
[RightHandMiddle3]
180	-29.50900078	0	0	1.559169054	-1.184484959	9.792815208	1.0
181	-29.50900078	0	0	1.289553046	-0.7627375722	6.28126049	1.0
182	-29.50900078	0	0	1.245450616	-0.5441863537	4.470452309	1.0
183	-29.50900078	0	0	1.406355381	-0.4727779925	3.880501032	1.0
[RightHandMiddle4]
180	-28.3390007	0	0.0009999999311	0	0	0	1.0
181	-28.3390007	0	0.0009999999311	0	0	0	1.0
182	-28.3390007	0	0.0009999999311	0	0	0	1.0
183	-28.3390007	0	0.0009999999311	0	0	0	1.0
[RightHandIndex1]
180	-91.08300018	-5.167999744	22.60099792	0.005923356861	3.874475956	3.701591492	1.0
181	-91.08300018	-5.167999744	22.60099792	-0.002407472814	4.064982891	4.849700451	1.0
182	-91.08300018	-5.167999744	22.60099792	0.0005572853261	4.539618969	5.080801487	1.0
183	-91.08300018	-5.167999744	22.60099792	0.01190995239	5.221541882	4.680437088	1.0
[RightHandIndex2]
180	-36.76399994	0	0	-0.8714748621	-3.374318123	29.03948021	1.0
181	-36.76399994	0	0	-0.6175826192	-2.863731623	24.33483124	1.0
182	-36.76399994	0	0	-0.5647405982	-2.746735811	23.27461243	1.0
183	-36.76399994	0	0	-0.6283195615	-2.886087656	24.53944206	1.0
[RightHandIndex3]
180	-28.83100128	0	0	-0.1497467756	-1.436232209	11.91544056	1.0
181	-28.83100128	0	0	-0.04570031911	-0.7960221171	6.572097778	1.0
182	-28.83100128	0	0	-0.01405902766	-0.4417941272	3.641260386	1.0
183	-28.83100128	0	0	-0.005990757607	-0.3043157458	2.507214785	1.0
[RightHandIndex4]
180	-23.92700005	0	0	0	0	0	1.0
181	-23.92700005	0	0	0	0	0	1.0
182	-23.92700005	0	0	0	0	0	1.0
183	-23.92700005	0	0	0	0	0	1.0
[RightHandThumb1]
180	-24.64799881	-15.72700024	26.82600021	9.674840927	-17.61188507	-14.13151073	1.0
181	-24.64799881	-15.72700024	26.82600021	9.591535568	-17.40732574	-13.6420784	1.0
182	-24.64799881	-15.72700024	26.82600021	9.49982357	-17.16955948	-13.08634663	1.0
183	-24.64799881	-15.72700024	26.82600021	9.418828011	-16.93221664	-12.52843285	1.0
[RightHandThumb2]
180	-32.29800034	-18.64699936	18.64699936	2.065801859	0.465955317	1.249967337	1.0
181	-32.29800034	-18.64699936	18.64699936	2.065714359	0.3901788294	1.50614965	1.0
182	-32.29800034	-18.64699936	18.64699936	2.06640029	0.3348931968	1.700664997	1.0
183	-32.29800034	-18.64699936	18.64699936	2.045084715	0.2901721299	1.792837501	1.0
[RightHandThumb3]
180	-26.52600098	-15.31399918	15.31399918	-3.670250654	4.057662487	-2.740839005	1.0
181	-26.52600098	-15.31399918	15.31399918	-3.380628347	3.444082499	-2.744802713	1.0
182	-26.52600098	-15.31399918	15.31399918	-3.183990955	3.035195589	-2.744600296	1.0
183	-26.52600098	-15.31399918	15.31399918	-3.080150366	2.821159124	-2.742857456	1.0
[RightHandThumb4]
180	-19.54599953	-11.28499985	11.28499985	0	0	0	1.0
181	-19.54599953	-11.28499985	11.28499985	0	0	0	1.0
182	-19.54599953	-11.28499985	11.28499985	0	0	0	1.0
183	-19.54599953	-11.28499985	11.28499985	0	0	0	1.0
[LeftUpLeg]
180	82.07800293	-67.51699829	-15.99599934	2.680369854	-20.4815197	1.545859456	1.0
181	82.07800293	-67.51699829	-15.99599934	1.937356353	-21.43773079	7.90557909	1.0
182	82.07800293	-67.51699829	-15.99599934	-0.5550281405	-18.42729759	13.83189201	1.0
183	82.07800293	-67.51699829	-15.99599934	-3.050982237	-11.48883629	19.43412209	1.0
[LeftLeg]
180	0	-443.7049866	2.845999956	39.33635712	-13.61383438	1.098080873	1.0
181	0	-443.7049866	2.845999956	35.39397812	-14.07651901	1.718548179	1.0
182	0	-443.7049866	2.845999956	32.84373093	-13.93242931	2.218022823	1.0
183	0	-443.7049866	2.845999956	30.86497688	-13.70564556	2.682568789	1.0
[LeftFoot]
180	0	-444.2789917	-29.8219986	-30.04846954	-24.02942276	19.91557121	1.0
181	0	-444.2789917	-29.8219986	-23.04754829	-25.80415154	17.34727287	1.0
182	0	-444.2789917	-29.8219986	-16.51321602	-27.70266914	13.18082428	1.0
183	0	-444.2789917	-29.8219986	-12.00869274	-29.06257629	8.995236397	1.0
[LeftToeBase]
180	0	-87.28699493	107.1060028	-9.356592178	-0.0724035427	-0.4083616138	1.0
181	0	-87.28699493	107.1060028	-13.63337708	-0.4914351106	-2.666156054	1.0
182	0	-87.28699493	107.1060028	-16.50773048	-0.5924680233	-2.461946011	1.0
183	0	-87.28699493	107.1060028	-18.1596241	-0.8964545131	-3.230724096	1.0
[RightUpLeg]
180	-82.07800293	-67.51699829	-15.99599934	-22.74550438	6.99723196	-5.680213928	1.0
181	-82.07800293	-67.51699829	-15.99599934	-19.0834198	5.520365715	-5.808441639	1.0
182	-82.07800293	-67.51699829	-15.99599934	-15.52212143	3.401449203	-6.325287342	1.0
183	-82.07800293	-67.51699829	-15.99599934	-13.32549858	3.972471237	-6.720284462	1.0
[RightLeg]
180	0	-443.7049866	2.861999989	58.03351974	-4.180017948	-9.111388206	1.0
181	0	-443.7049866	2.861999989	41.63908386	-6.149367809	-8.222916603	1.0
182	0	-443.7049866	2.861999989	26.60147667	-7.72233963	-6.716781139	1.0
183	0	-443.7049866	2.861999989	16.7861042	-8.64894104	-5.448719025	1.0
[RightFoot]
180	0	-444.2770081	-29.83799934	-11.64741325	-5.44828701	5.272391319	1.0
181	0	-444.2770081	-29.83799934	-7.889747143	-5.325893879	8.653040886	1.0
182	0	-444.2770081	-29.83799934	-1.329363108	-4.921978474	10.02888393	1.0
183	0	-444.2770081	-29.83799934	5.338268757	-5.366332054	10.57093525	1.0
[RightToeBase]
180	0	-87.28699493	107.1060028	6.01584816	1.967006938e-05	-1.019318188e-05	1.0
181	0	-87.28699493	107.1060028	7.898030758	-2.131848851e-05	2.315352049e-06	1.0
182	0	-87.28699493	107.1060028	7.196748734	-1.227733173e-05	-1.162388344e-06	1.0
183	0	-87.28699493	107.1060028	8.423616409	0.03371171653	-0.4234622121	1.0
[EndOfFile]
